<svg width="47" height="47" viewBox="0 0 47 47" fill="none" xmlns="http://www.w3.org/2000/svg">
<path d="M30.8438 30.8564H37.8203C41.8761 30.8564 45.1641 27.5685 45.1641 23.5127C45.1641 19.4567 42.2433 16.1689 38.1875 16.1689C38.1875 12.1129 34.8995 8.8252 30.8438 8.8252C29.9693 8.8252 29.142 9.00402 28.3641 9.28464C26.3446 6.78446 23.2923 5.15332 19.8281 5.15332C13.7444 5.15332 8.8125 10.0852 8.8125 16.1689C4.75673 16.1689 1.83594 19.4567 1.83594 23.5127C1.83594 27.5685 5.12392 30.8564 9.17969 30.8564H16.1562" stroke="#F0F0F0" stroke-width="1.7625" stroke-miterlimit="10" stroke-linecap="round" stroke-linejoin="round"/>
<path d="M30.8438 30.8564H37.8203C41.8761 30.8564 45.1641 27.5685 45.1641 23.5127C45.1641 19.4567 42.2433 16.1689 38.1875 16.1689C38.1875 12.1129 34.8995 8.8252 30.8438 8.8252C29.9693 8.8252 29.142 9.00402 28.3641 9.28464C26.3446 6.78446 23.2923 5.15332 19.8281 5.15332C13.7444 5.15332 8.8125 10.0852 8.8125 16.1689C4.75673 16.1689 1.83594 19.4567 1.83594 23.5127C1.83594 27.5685 5.12392 30.8564 9.17969 30.8564H16.1562" stroke="#F0F0F0" stroke-width="1.7625" stroke-miterlimit="10" stroke-linecap="round" stroke-linejoin="round"/>
<path d="M23.5 41.8455V19.8408" stroke="#F0F0F0" stroke-width="1.7625" stroke-miterlimit="10" stroke-linecap="round" stroke-linejoin="round"/>
<path d="M17.9922 24.5881L22.2018 20.3785C22.9187 19.6616 24.0813 19.6616 24.7982 20.3785L29.0078 24.5881" stroke="#F0F0F0" stroke-width="1.7625" stroke-miterlimit="10" stroke-linecap="round" stroke-linejoin="round"/>
</svg>
