<svg width="65" height="32" viewBox="0 0 65 32" fill="none" xmlns="http://www.w3.org/2000/svg">
<g filter="url(#filter0_ddii_315_57)">
<path d="M30.1144 10H25.1464C24.8824 10 24.7264 9.916 24.6304 9.76L22.1344 4.948L16.8424 8.584H22.2904C22.4464 8.584 22.5064 8.644 22.5064 8.74C22.5064 8.776 22.4944 8.848 22.4584 8.908L22.1224 9.676C22.0264 9.892 21.8704 10 21.6664 10H13.6624C13.5544 10 13.5064 9.952 13.5064 9.856C13.5064 9.772 13.5784 9.688 13.6984 9.604L24.5944 2.044C24.8104 1.9 25.0024 1.816 25.2064 1.816H25.9864C26.2144 1.816 26.3344 1.9 26.4184 2.044L30.4744 9.58C30.4864 9.628 30.4984 9.676 30.4984 9.724C30.4984 9.868 30.3784 10 30.1144 10ZM45.2812 10H41.2732C40.9612 10 40.7332 9.904 40.6132 9.676L38.6092 5.872C38.5612 5.8 38.5252 5.74 38.5252 5.644C38.5252 5.596 38.5492 5.524 38.5972 5.428L38.7292 5.152C38.8252 4.948 38.9692 4.84 39.1852 4.84H40.8172C41.8612 4.84 42.4012 4.336 42.4012 3.76C42.4012 3.424 42.1252 3.22 41.5372 3.22H38.8612L35.9812 9.676C35.8852 9.892 35.7412 10 35.5252 10H31.4092C31.2652 10 31.1812 9.952 31.1812 9.856C31.1812 9.796 31.1932 9.748 31.2292 9.676L34.6012 2.128C34.6972 1.924 34.8412 1.816 35.0572 1.816H45.5452C46.6612 1.816 47.3452 2.404 47.3452 3.268C47.3452 4.84 45.7252 5.98 43.7692 6.22L45.5812 9.616C45.5932 9.64 45.6052 9.688 45.6052 9.724C45.6052 9.856 45.4732 10 45.2812 10ZM9.52248 24H5.21448C5.10648 24 5.03448 23.964 5.03448 23.916C5.03448 23.892 5.04648 23.868 5.05848 23.844L7.99848 17.22H4.49448C4.37448 17.22 4.32648 17.196 4.32648 17.136V17.088L4.81848 15.972C4.87848 15.864 4.97448 15.816 5.11848 15.816H16.9025C17.0105 15.816 17.0705 15.84 17.0705 15.9C17.0705 15.924 17.0585 15.948 17.0585 15.972L16.5665 17.088C16.5185 17.184 16.4225 17.22 16.2785 17.22H12.7505L9.81049 23.844C9.76249 23.952 9.66648 24 9.52248 24ZM27.381 20.244H21.645C21.501 20.244 21.429 20.196 21.429 20.1C21.429 20.052 21.441 19.992 21.477 19.932L21.813 19.152C21.909 18.948 22.065 18.84 22.281 18.84H28.005C28.173 18.84 28.257 18.876 28.257 18.96C28.257 18.984 28.245 19.02 28.233 19.056L27.789 20.028C27.729 20.172 27.585 20.244 27.381 20.244ZM25.833 24H17.409C15.777 24 14.853 22.92 14.853 21.408C14.853 18.612 17.889 15.816 21.057 15.816H29.445C29.589 15.816 29.661 15.864 29.661 15.972C29.661 16.02 29.649 16.068 29.625 16.128L29.277 16.896C29.181 17.112 29.025 17.22 28.809 17.22H23.229C22.197 17.22 21.633 17.616 20.985 19.092L20.409 20.4C20.109 21.072 19.953 21.552 19.953 21.9C19.953 22.392 20.265 22.584 20.841 22.584H26.469C26.613 22.584 26.685 22.644 26.685 22.74C26.685 22.776 26.673 22.848 26.637 22.908L26.301 23.676C26.205 23.892 26.049 24 25.833 24ZM41.8153 24H37.7233C37.3873 24 37.2193 23.904 37.0513 23.676L34.5433 20.112C34.4953 20.04 34.4713 19.98 34.4713 19.896C34.4713 19.8 34.4953 19.692 34.5793 19.536L34.7233 19.188C34.8433 18.912 34.9513 18.816 35.1793 18.708L41.0233 16.128C41.4313 15.948 41.8153 15.816 42.1993 15.816H44.7313C44.8513 15.816 44.8993 15.876 44.8993 15.948C44.8993 16.032 44.8393 16.152 44.6593 16.224L38.6593 18.852L42.2353 23.46C42.2833 23.52 42.2953 23.592 42.2953 23.652C42.2953 23.844 42.1393 24 41.8153 24ZM31.6873 24H27.5593C27.4273 24 27.3433 23.952 27.3433 23.856C27.3433 23.796 27.3553 23.748 27.3913 23.676L30.7633 16.128C30.8593 15.924 31.0033 15.816 31.2073 15.816H35.3353C35.4793 15.816 35.5633 15.864 35.5633 15.972C35.5633 16.02 35.5513 16.068 35.5153 16.128L32.1433 23.676C32.0473 23.892 31.9033 24 31.6873 24ZM57.4364 24H53.3444C53.0084 24 52.8404 23.904 52.6724 23.676L50.1644 20.112C50.1164 20.04 50.0924 19.98 50.0924 19.896C50.0924 19.8 50.1164 19.692 50.2004 19.536L50.3444 19.188C50.4644 18.912 50.5724 18.816 50.8004 18.708L56.6444 16.128C57.0524 15.948 57.4364 15.816 57.8204 15.816H60.3524C60.4724 15.816 60.5204 15.876 60.5204 15.948C60.5204 16.032 60.4604 16.152 60.2804 16.224L54.2804 18.852L57.8564 23.46C57.9044 23.52 57.9164 23.592 57.9164 23.652C57.9164 23.844 57.7604 24 57.4364 24ZM47.3084 24H43.1804C43.0484 24 42.9644 23.952 42.9644 23.856C42.9644 23.796 42.9764 23.748 43.0124 23.676L46.3844 16.128C46.4804 15.924 46.6244 15.816 46.8284 15.816H50.9564C51.1004 15.816 51.1844 15.864 51.1844 15.972C51.1844 16.02 51.1724 16.068 51.1364 16.128L47.7644 23.676C47.6684 23.892 47.5244 24 47.3084 24Z" fill="url(#paint0_linear_315_57)"/>
</g>
<defs>
<filter id="filter0_ddii_315_57" x="0.326477" y="0.815979" width="64.1939" height="31.184" filterUnits="userSpaceOnUse" color-interpolation-filters="sRGB">
<feFlood flood-opacity="0" result="BackgroundImageFix"/>
<feColorMatrix in="SourceAlpha" type="matrix" values="0 0 0 0 0 0 0 0 0 0 0 0 0 0 0 0 0 0 127 0" result="hardAlpha"/>
<feOffset dy="1"/>
<feGaussianBlur stdDeviation="1"/>
<feComposite in2="hardAlpha" operator="out"/>
<feColorMatrix type="matrix" values="0 0 0 0 0.0941176 0 0 0 0 0 0 0 0 0 0.164706 0 0 0 0.2 0"/>
<feBlend mode="normal" in2="BackgroundImageFix" result="effect1_dropShadow_315_57"/>
<feColorMatrix in="SourceAlpha" type="matrix" values="0 0 0 0 0 0 0 0 0 0 0 0 0 0 0 0 0 0 127 0" result="hardAlpha"/>
<feOffset dy="4"/>
<feGaussianBlur stdDeviation="2"/>
<feComposite in2="hardAlpha" operator="out"/>
<feColorMatrix type="matrix" values="0 0 0 0 0.0925555 0 0 0 0 0 0 0 0 0 0.165278 0 0 0 0.08 0"/>
<feBlend mode="normal" in2="effect1_dropShadow_315_57" result="effect2_dropShadow_315_57"/>
<feBlend mode="normal" in="SourceGraphic" in2="effect2_dropShadow_315_57" result="shape"/>
<feColorMatrix in="SourceAlpha" type="matrix" values="0 0 0 0 0 0 0 0 0 0 0 0 0 0 0 0 0 0 127 0" result="hardAlpha"/>
<feOffset dy="1"/>
<feGaussianBlur stdDeviation="0.5"/>
<feComposite in2="hardAlpha" operator="arithmetic" k2="-1" k3="1"/>
<feColorMatrix type="matrix" values="0 0 0 0 1 0 0 0 0 1 0 0 0 0 1 0 0 0 0.2 0"/>
<feBlend mode="normal" in2="shape" result="effect3_innerShadow_315_57"/>
<feColorMatrix in="SourceAlpha" type="matrix" values="0 0 0 0 0 0 0 0 0 0 0 0 0 0 0 0 0 0 127 0" result="hardAlpha"/>
<feOffset dy="6"/>
<feGaussianBlur stdDeviation="6"/>
<feComposite in2="hardAlpha" operator="arithmetic" k2="-1" k3="1"/>
<feColorMatrix type="matrix" values="0 0 0 0 1 0 0 0 0 1 0 0 0 0 1 0 0 0 0.12 0"/>
<feBlend mode="normal" in2="effect3_innerShadow_315_57" result="effect4_innerShadow_315_57"/>
</filter>
<linearGradient id="paint0_linear_315_57" x1="1" y1="-0.40625" x2="60.7106" y2="7.62241" gradientUnits="userSpaceOnUse">
<stop stop-color="#1F009B"/>
<stop offset="1" stop-color="#670070"/>
</linearGradient>
</defs>
</svg>
