<svg width="50" height="50" viewBox="0 0 80 80" fill="none" xmlns="http://www.w3.org/2000/svg">
<rect width="80" height="80" rx="24" fill="white"/>
<g filter="url(#filter0_ddii_4222_25992)">
<path d="M39.1144 37H34.1464C33.8824 37 33.7264 36.916 33.6304 36.76L31.1344 31.948L25.8424 35.584H31.2904C31.4464 35.584 31.5064 35.644 31.5064 35.74C31.5064 35.776 31.4944 35.848 31.4584 35.908L31.1224 36.676C31.0264 36.892 30.8704 37 30.6664 37H22.6624C22.5544 37 22.5064 36.952 22.5064 36.856C22.5064 36.772 22.5784 36.688 22.6984 36.604L33.5944 29.044C33.8104 28.9 34.0024 28.816 34.2064 28.816H34.9864C35.2144 28.816 35.3344 28.9 35.4184 29.044L39.4744 36.58C39.4864 36.628 39.4984 36.676 39.4984 36.724C39.4984 36.868 39.3784 37 39.1144 37ZM54.2812 37H50.2732C49.9612 37 49.7332 36.904 49.6132 36.676L47.6092 32.872C47.5612 32.8 47.5252 32.74 47.5252 32.644C47.5252 32.596 47.5492 32.524 47.5972 32.428L47.7292 32.152C47.8252 31.948 47.9692 31.84 48.1852 31.84H49.8172C50.8612 31.84 51.4012 31.336 51.4012 30.76C51.4012 30.424 51.1252 30.22 50.5372 30.22H47.8612L44.9812 36.676C44.8852 36.892 44.7412 37 44.5252 37H40.4092C40.2652 37 40.1812 36.952 40.1812 36.856C40.1812 36.796 40.1932 36.748 40.2292 36.676L43.6012 29.128C43.6972 28.924 43.8412 28.816 44.0572 28.816H54.5452C55.6612 28.816 56.3452 29.404 56.3452 30.268C56.3452 31.84 54.7252 32.98 52.7692 33.22L54.5812 36.616C54.5932 36.64 54.6052 36.688 54.6052 36.724C54.6052 36.856 54.4732 37 54.2812 37ZM18.5225 51H14.2145C14.1065 51 14.0345 50.964 14.0345 50.916C14.0345 50.892 14.0465 50.868 14.0585 50.844L16.9985 44.22H13.4945C13.3745 44.22 13.3265 44.196 13.3265 44.136V44.088L13.8185 42.972C13.8785 42.864 13.9745 42.816 14.1185 42.816H25.9025C26.0105 42.816 26.0705 42.84 26.0705 42.9C26.0705 42.924 26.0585 42.948 26.0585 42.972L25.5665 44.088C25.5185 44.184 25.4225 44.22 25.2785 44.22H21.7505L18.8105 50.844C18.7625 50.952 18.6665 51 18.5225 51ZM36.381 47.244H30.645C30.501 47.244 30.429 47.196 30.429 47.1C30.429 47.052 30.441 46.992 30.477 46.932L30.813 46.152C30.909 45.948 31.065 45.84 31.281 45.84H37.005C37.173 45.84 37.257 45.876 37.257 45.96C37.257 45.984 37.245 46.02 37.233 46.056L36.789 47.028C36.729 47.172 36.585 47.244 36.381 47.244ZM34.833 51H26.409C24.777 51 23.853 49.92 23.853 48.408C23.853 45.612 26.889 42.816 30.057 42.816H38.445C38.589 42.816 38.661 42.864 38.661 42.972C38.661 43.02 38.649 43.068 38.625 43.128L38.277 43.896C38.181 44.112 38.025 44.22 37.809 44.22H32.229C31.197 44.22 30.633 44.616 29.985 46.092L29.409 47.4C29.109 48.072 28.953 48.552 28.953 48.9C28.953 49.392 29.265 49.584 29.841 49.584H35.469C35.613 49.584 35.685 49.644 35.685 49.74C35.685 49.776 35.673 49.848 35.637 49.908L35.301 50.676C35.205 50.892 35.049 51 34.833 51ZM50.8153 51H46.7233C46.3873 51 46.2193 50.904 46.0513 50.676L43.5433 47.112C43.4953 47.04 43.4713 46.98 43.4713 46.896C43.4713 46.8 43.4953 46.692 43.5793 46.536L43.7233 46.188C43.8433 45.912 43.9513 45.816 44.1793 45.708L50.0233 43.128C50.4313 42.948 50.8153 42.816 51.1993 42.816H53.7313C53.8513 42.816 53.8993 42.876 53.8993 42.948C53.8993 43.032 53.8393 43.152 53.6593 43.224L47.6593 45.852L51.2353 50.46C51.2833 50.52 51.2953 50.592 51.2953 50.652C51.2953 50.844 51.1393 51 50.8153 51ZM40.6873 51H36.5593C36.4273 51 36.3433 50.952 36.3433 50.856C36.3433 50.796 36.3553 50.748 36.3913 50.676L39.7633 43.128C39.8593 42.924 40.0033 42.816 40.2073 42.816H44.3353C44.4793 42.816 44.5633 42.864 44.5633 42.972C44.5633 43.02 44.5513 43.068 44.5153 43.128L41.1433 50.676C41.0473 50.892 40.9033 51 40.6873 51ZM66.4364 51H62.3444C62.0084 51 61.8404 50.904 61.6724 50.676L59.1644 47.112C59.1164 47.04 59.0924 46.98 59.0924 46.896C59.0924 46.8 59.1164 46.692 59.2004 46.536L59.3444 46.188C59.4644 45.912 59.5724 45.816 59.8004 45.708L65.6444 43.128C66.0524 42.948 66.4364 42.816 66.8204 42.816H69.3524C69.4724 42.816 69.5204 42.876 69.5204 42.948C69.5204 43.032 69.4604 43.152 69.2804 43.224L63.2804 45.852L66.8564 50.46C66.9044 50.52 66.9164 50.592 66.9164 50.652C66.9164 50.844 66.7604 51 66.4364 51ZM56.3084 51H52.1804C52.0484 51 51.9644 50.952 51.9644 50.856C51.9644 50.796 51.9764 50.748 52.0124 50.676L55.3844 43.128C55.4804 42.924 55.6244 42.816 55.8284 42.816H59.9564C60.1004 42.816 60.1844 42.864 60.1844 42.972C60.1844 43.02 60.1724 43.068 60.1364 43.128L56.7644 50.676C56.6684 50.892 56.5244 51 56.3084 51Z" fill="url(#paint0_linear_4222_25992)"/>
<path d="M39.1144 37H34.1464C33.8824 37 33.7264 36.916 33.6304 36.76L31.1344 31.948L25.8424 35.584H31.2904C31.4464 35.584 31.5064 35.644 31.5064 35.74C31.5064 35.776 31.4944 35.848 31.4584 35.908L31.1224 36.676C31.0264 36.892 30.8704 37 30.6664 37H22.6624C22.5544 37 22.5064 36.952 22.5064 36.856C22.5064 36.772 22.5784 36.688 22.6984 36.604L33.5944 29.044C33.8104 28.9 34.0024 28.816 34.2064 28.816H34.9864C35.2144 28.816 35.3344 28.9 35.4184 29.044L39.4744 36.58C39.4864 36.628 39.4984 36.676 39.4984 36.724C39.4984 36.868 39.3784 37 39.1144 37ZM54.2812 37H50.2732C49.9612 37 49.7332 36.904 49.6132 36.676L47.6092 32.872C47.5612 32.8 47.5252 32.74 47.5252 32.644C47.5252 32.596 47.5492 32.524 47.5972 32.428L47.7292 32.152C47.8252 31.948 47.9692 31.84 48.1852 31.84H49.8172C50.8612 31.84 51.4012 31.336 51.4012 30.76C51.4012 30.424 51.1252 30.22 50.5372 30.22H47.8612L44.9812 36.676C44.8852 36.892 44.7412 37 44.5252 37H40.4092C40.2652 37 40.1812 36.952 40.1812 36.856C40.1812 36.796 40.1932 36.748 40.2292 36.676L43.6012 29.128C43.6972 28.924 43.8412 28.816 44.0572 28.816H54.5452C55.6612 28.816 56.3452 29.404 56.3452 30.268C56.3452 31.84 54.7252 32.98 52.7692 33.22L54.5812 36.616C54.5932 36.64 54.6052 36.688 54.6052 36.724C54.6052 36.856 54.4732 37 54.2812 37ZM18.5225 51H14.2145C14.1065 51 14.0345 50.964 14.0345 50.916C14.0345 50.892 14.0465 50.868 14.0585 50.844L16.9985 44.22H13.4945C13.3745 44.22 13.3265 44.196 13.3265 44.136V44.088L13.8185 42.972C13.8785 42.864 13.9745 42.816 14.1185 42.816H25.9025C26.0105 42.816 26.0705 42.84 26.0705 42.9C26.0705 42.924 26.0585 42.948 26.0585 42.972L25.5665 44.088C25.5185 44.184 25.4225 44.22 25.2785 44.22H21.7505L18.8105 50.844C18.7625 50.952 18.6665 51 18.5225 51ZM36.381 47.244H30.645C30.501 47.244 30.429 47.196 30.429 47.1C30.429 47.052 30.441 46.992 30.477 46.932L30.813 46.152C30.909 45.948 31.065 45.84 31.281 45.84H37.005C37.173 45.84 37.257 45.876 37.257 45.96C37.257 45.984 37.245 46.02 37.233 46.056L36.789 47.028C36.729 47.172 36.585 47.244 36.381 47.244ZM34.833 51H26.409C24.777 51 23.853 49.92 23.853 48.408C23.853 45.612 26.889 42.816 30.057 42.816H38.445C38.589 42.816 38.661 42.864 38.661 42.972C38.661 43.02 38.649 43.068 38.625 43.128L38.277 43.896C38.181 44.112 38.025 44.22 37.809 44.22H32.229C31.197 44.22 30.633 44.616 29.985 46.092L29.409 47.4C29.109 48.072 28.953 48.552 28.953 48.9C28.953 49.392 29.265 49.584 29.841 49.584H35.469C35.613 49.584 35.685 49.644 35.685 49.74C35.685 49.776 35.673 49.848 35.637 49.908L35.301 50.676C35.205 50.892 35.049 51 34.833 51ZM50.8153 51H46.7233C46.3873 51 46.2193 50.904 46.0513 50.676L43.5433 47.112C43.4953 47.04 43.4713 46.98 43.4713 46.896C43.4713 46.8 43.4953 46.692 43.5793 46.536L43.7233 46.188C43.8433 45.912 43.9513 45.816 44.1793 45.708L50.0233 43.128C50.4313 42.948 50.8153 42.816 51.1993 42.816H53.7313C53.8513 42.816 53.8993 42.876 53.8993 42.948C53.8993 43.032 53.8393 43.152 53.6593 43.224L47.6593 45.852L51.2353 50.46C51.2833 50.52 51.2953 50.592 51.2953 50.652C51.2953 50.844 51.1393 51 50.8153 51ZM40.6873 51H36.5593C36.4273 51 36.3433 50.952 36.3433 50.856C36.3433 50.796 36.3553 50.748 36.3913 50.676L39.7633 43.128C39.8593 42.924 40.0033 42.816 40.2073 42.816H44.3353C44.4793 42.816 44.5633 42.864 44.5633 42.972C44.5633 43.02 44.5513 43.068 44.5153 43.128L41.1433 50.676C41.0473 50.892 40.9033 51 40.6873 51ZM66.4364 51H62.3444C62.0084 51 61.8404 50.904 61.6724 50.676L59.1644 47.112C59.1164 47.04 59.0924 46.98 59.0924 46.896C59.0924 46.8 59.1164 46.692 59.2004 46.536L59.3444 46.188C59.4644 45.912 59.5724 45.816 59.8004 45.708L65.6444 43.128C66.0524 42.948 66.4364 42.816 66.8204 42.816H69.3524C69.4724 42.816 69.5204 42.876 69.5204 42.948C69.5204 43.032 69.4604 43.152 69.2804 43.224L63.2804 45.852L66.8564 50.46C66.9044 50.52 66.9164 50.592 66.9164 50.652C66.9164 50.844 66.7604 51 66.4364 51ZM56.3084 51H52.1804C52.0484 51 51.9644 50.952 51.9644 50.856C51.9644 50.796 51.9764 50.748 52.0124 50.676L55.3844 43.128C55.4804 42.924 55.6244 42.816 55.8284 42.816H59.9564C60.1004 42.816 60.1844 42.864 60.1844 42.972C60.1844 43.02 60.1724 43.068 60.1364 43.128L56.7644 50.676C56.6684 50.892 56.5244 51 56.3084 51Z" fill="url(#paint1_linear_4222_25992)"/>
</g>
<defs>
<filter id="filter0_ddii_4222_25992" x="9.32812" y="27.816" width="64.1914" height="31.184" filterUnits="userSpaceOnUse" color-interpolation-filters="sRGB">
<feFlood flood-opacity="0" result="BackgroundImageFix"/>
<feColorMatrix in="SourceAlpha" type="matrix" values="0 0 0 0 0 0 0 0 0 0 0 0 0 0 0 0 0 0 127 0" result="hardAlpha"/>
<feOffset dy="1"/>
<feGaussianBlur stdDeviation="1"/>
<feComposite in2="hardAlpha" operator="out"/>
<feColorMatrix type="matrix" values="0 0 0 0 0.0941176 0 0 0 0 0 0 0 0 0 0.164706 0 0 0 0.2 0"/>
<feBlend mode="normal" in2="BackgroundImageFix" result="effect1_dropShadow_4222_25992"/>
<feColorMatrix in="SourceAlpha" type="matrix" values="0 0 0 0 0 0 0 0 0 0 0 0 0 0 0 0 0 0 127 0" result="hardAlpha"/>
<feOffset dy="4"/>
<feGaussianBlur stdDeviation="2"/>
<feComposite in2="hardAlpha" operator="out"/>
<feColorMatrix type="matrix" values="0 0 0 0 0.0925555 0 0 0 0 0 0 0 0 0 0.165278 0 0 0 0.08 0"/>
<feBlend mode="normal" in2="effect1_dropShadow_4222_25992" result="effect2_dropShadow_4222_25992"/>
<feBlend mode="normal" in="SourceGraphic" in2="effect2_dropShadow_4222_25992" result="shape"/>
<feColorMatrix in="SourceAlpha" type="matrix" values="0 0 0 0 0 0 0 0 0 0 0 0 0 0 0 0 0 0 127 0" result="hardAlpha"/>
<feOffset dy="1"/>
<feGaussianBlur stdDeviation="0.5"/>
<feComposite in2="hardAlpha" operator="arithmetic" k2="-1" k3="1"/>
<feColorMatrix type="matrix" values="0 0 0 0 1 0 0 0 0 1 0 0 0 0 1 0 0 0 0.2 0"/>
<feBlend mode="normal" in2="shape" result="effect3_innerShadow_4222_25992"/>
<feColorMatrix in="SourceAlpha" type="matrix" values="0 0 0 0 0 0 0 0 0 0 0 0 0 0 0 0 0 0 127 0" result="hardAlpha"/>
<feOffset dy="6"/>
<feGaussianBlur stdDeviation="6"/>
<feComposite in2="hardAlpha" operator="arithmetic" k2="-1" k3="1"/>
<feColorMatrix type="matrix" values="0 0 0 0 1 0 0 0 0 1 0 0 0 0 1 0 0 0 0.12 0"/>
<feBlend mode="normal" in2="effect3_innerShadow_4222_25992" result="effect4_innerShadow_4222_25992"/>
</filter>
<linearGradient id="paint0_linear_4222_25992" x1="10" y1="26.5937" x2="69.7106" y2="34.6224" gradientUnits="userSpaceOnUse">
<stop stop-color="#1F009B"/>
<stop offset="1" stop-color="#670070"/>
</linearGradient>
<linearGradient id="paint1_linear_4222_25992" x1="10" y1="26.5937" x2="69.7106" y2="34.6224" gradientUnits="userSpaceOnUse">
<stop stop-color="#0A0030"/>
<stop offset="1" stop-color="#2A002E"/>
</linearGradient>
</defs>
</svg>
