<svg width="13" height="13" viewBox="0 0 13 13" fill="none" xmlns="http://www.w3.org/2000/svg">
    <path
        d="M8.72655 4.77747C9.04126 5.29444 9.20807 5.89118 9.20807 6.50008C9.20807 7.10898 9.04126 7.70572 8.72655 8.22269M10.3851 3.01167C11.043 4.04987 11.3871 5.26315 11.3747 6.50008C11.3861 7.71942 11.0518 8.91604 10.4122 9.9453M6.14722 2.30015L3.24995 4.83894H2.16665C2.02299 4.83894 1.88522 4.89727 1.78365 5.00112C1.68207 5.10496 1.625 5.2458 1.625 5.39265V7.60751C1.625 7.75437 1.68207 7.89521 1.78365 7.99905C1.88522 8.10289 2.02299 8.16123 2.16665 8.16123H3.24995L6.14722 10.7C6.22586 10.769 6.32219 10.8134 6.42479 10.8281C6.52739 10.8427 6.63195 10.827 6.72608 10.7828C6.82021 10.7386 6.89995 10.6677 6.95586 10.5785C7.01176 10.4893 7.04148 10.3856 7.04148 10.2797V2.72042C7.04148 2.61451 7.01176 2.51083 6.95586 2.42167C6.89995 2.33251 6.82021 2.2616 6.72608 2.21737C6.63195 2.17313 6.52739 2.15742 6.42479 2.17209C6.32219 2.18676 6.22586 2.23121 6.14722 2.30015Z"
        stroke="#F9FAFB" stroke-linecap="round" stroke-linejoin="round" />
</svg>
    