<svg width="13" height="13" viewBox="0 0 13 13" fill="none" xmlns="http://www.w3.org/2000/svg">
<path d="M6.14722 2.30015L3.24995 4.83894H2.16665C2.02299 4.83894 1.88522 4.89727 1.78365 5.00112C1.68207 5.10496 1.625 5.2458 1.625 5.39265V7.60751C1.625 7.75437 1.68207 7.89521 1.78365 7.99905C1.88522 8.10289 2.02299 8.16123 2.16665 8.16123H3.24995L6.14722 10.7C6.22586 10.769 6.32219 10.8134 6.42479 10.8281C6.52739 10.8427 6.63195 10.827 6.72608 10.7828C6.82021 10.7386 6.89995 10.6677 6.95586 10.5785C7.01176 10.4893 7.04148 10.3856 7.04148 10.2797V2.72042C7.04148 2.61451 7.01176 2.51083 6.95586 2.42167C6.89995 2.33251 6.82021 2.2616 6.72608 2.21737C6.63195 2.17313 6.52739 2.15742 6.42479 2.17209C6.32219 2.18676 6.22586 2.23121 6.14722 2.30015Z" stroke="#F9FAFB" stroke-linecap="round" stroke-linejoin="round"/>
<path d="M11.2497 5.25604L10 6.5057L8.74978 5.25548L8.74979 5.25547L8.74854 5.25426C8.68261 5.19058 8.59431 5.15535 8.50266 5.15615C8.411 5.15694 8.32333 5.19371 8.25852 5.25852C8.19371 5.32333 8.15694 5.411 8.15615 5.50266C8.15535 5.59431 8.19058 5.68261 8.25426 5.74854L8.25425 5.74855L8.25548 5.74978L9.5057 7L8.25604 8.24966C8.22297 8.28177 8.19658 8.32011 8.17838 8.36247C8.16006 8.40512 8.15042 8.45099 8.15001 8.4974C8.14961 8.54381 8.15845 8.58984 8.17603 8.6328C8.19361 8.67576 8.21956 8.71479 8.25238 8.74762C8.28521 8.78044 8.32423 8.80639 8.36719 8.82397C8.41015 8.84155 8.45619 8.85039 8.5026 8.84999C8.54901 8.84958 8.59488 8.83994 8.63753 8.82162C8.67989 8.80342 8.71823 8.77703 8.75034 8.74396L10 7.4943L11.2502 8.74452L11.2502 8.74453L11.2515 8.74574C11.3174 8.80942 11.4057 8.84465 11.4973 8.84385C11.589 8.84306 11.6767 8.80629 11.7415 8.74148C11.8063 8.67667 11.8431 8.589 11.8439 8.49734C11.8446 8.40569 11.8094 8.31739 11.7457 8.25146L11.7458 8.25145L11.7445 8.25022L10.4943 7L11.744 5.75034C11.777 5.71823 11.8034 5.67989 11.8216 5.63753C11.8399 5.59488 11.8496 5.54901 11.85 5.5026C11.8504 5.45619 11.8415 5.41015 11.824 5.36719C11.8064 5.32423 11.7804 5.28521 11.7476 5.25238C11.7148 5.21956 11.6758 5.19361 11.6328 5.17603C11.5898 5.15845 11.5438 5.14961 11.4974 5.15001C11.451 5.15042 11.4051 5.16006 11.3625 5.17838C11.3201 5.19658 11.2818 5.22297 11.2497 5.25604Z" fill="#F9FAFB" stroke="#F9FAFB" stroke-width="0.2"/>
</svg>
