<svg width="27" height="27" viewBox="0 0 27 27" fill="none" xmlns="http://www.w3.org/2000/svg">
<g clip-path="url(#clip0_1097_55)">
<path d="M19.1678 17.957C19.3264 17.9706 19.4842 17.9872 19.6403 18.0089L13.5001 24.7435L7.3599 18.0089C7.51605 17.9872 7.67381 17.9706 7.83246 17.957C3.44682 18.3202 0 21.9922 0 26.4716H27.0002C27.0002 21.9922 23.5534 18.3202 19.1678 17.957Z" fill="#096258"/>
<path d="M16.7483 16.3735L16.7607 16.3848V15.1064C15.8967 15.8838 14.7538 16.3571 13.5001 16.3571C12.2464 16.3571 11.1035 15.8838 10.2395 15.1064V16.2896L13.5001 21.1726L16.7483 16.3735Z" fill="#DB8E53"/>
<path d="M13.5004 16.3581C14.7541 16.3581 15.8969 15.8847 16.761 15.1074C17.7534 14.2146 18.3777 12.9207 18.3777 11.4808V7.10329C18.3777 6.83826 18.3558 6.5784 18.3152 6.32485C16.2635 6.13685 15.683 4.18945 15.683 4.18945C12.909 6.25062 9.56412 6.35182 8.68288 6.33992C8.70413 6.2046 8.73157 6.07137 8.76372 5.93998C8.67246 6.31289 8.62305 6.70223 8.62305 7.10329V11.4808C8.62305 12.9207 9.24742 14.2146 10.2398 15.1074C11.1038 15.8846 12.2467 16.3581 13.5004 16.3581Z" fill="#F8B372"/>
<path d="M13.4999 24.7432L19.6401 18.0087C19.484 17.987 19.3262 17.9704 19.1675 17.9568C19.1062 17.9516 19.0448 17.9467 18.9831 17.9428C18.9309 17.9394 18.8785 17.9366 18.8261 17.9342C18.7025 17.9286 18.5784 17.9248 18.4534 17.9248L16.7604 16.3852L16.7481 16.3739L13.4999 21.173L10.2393 16.29L8.54632 17.9248C8.42137 17.9248 8.29724 17.9286 8.17366 17.9342C8.12121 17.9366 8.06888 17.9394 8.01667 17.9428C7.955 17.9467 7.89356 17.9516 7.83218 17.9568C7.67353 17.9704 7.51577 17.987 7.35962 18.0087L13.4999 24.7432Z" fill="#A8D8DA"/>
<path d="M19.9822 6.84659H19.9027C19.861 4.76108 18.8242 2.80773 17.0953 1.62543C15.1885 0.321505 12.6502 0.175236 10.5944 1.21704C8.55903 2.2486 7.21082 4.35305 7.10223 6.62841C7.09878 6.70104 7.09783 6.77385 7.0958 6.84659H6.57859C6.23908 6.84659 5.96387 7.12181 5.96387 7.46132V10.5215C5.96387 11.1035 6.43566 11.5753 7.0177 11.5753H8.62261V6.84659H7.62825C7.64784 6.02893 7.80989 5.22257 8.15618 4.47664C8.59624 3.52883 9.28258 2.69759 10.143 2.10204C11.915 0.875447 14.2841 0.706972 16.2006 1.70591C18.0959 2.69384 19.3363 4.67363 19.3745 6.81385C19.3747 6.82474 19.3747 6.83564 19.3749 6.84653H18.3773V11.5753H20.4213C20.7608 11.5753 21.036 11.3 21.036 10.9605V7.90036C21.036 7.31844 20.5643 6.84659 19.9822 6.84659Z" fill="#EA5244"/>
<path d="M18.3146 6.32154C18.27 6.04431 18.2014 5.7751 18.1121 5.5156C18.1071 5.50102 18.1024 5.48632 18.0973 5.47185C18.0789 5.42024 18.0593 5.36928 18.0393 5.3185C18.0319 5.29956 18.0246 5.28063 18.017 5.26182C17.9973 5.21348 17.9766 5.16568 17.9553 5.11817C17.9462 5.09769 17.9371 5.07721 17.9277 5.05685C17.9063 5.01066 17.8841 4.96482 17.8614 4.91939C17.851 4.8988 17.8405 4.87832 17.8298 4.85784C17.8066 4.81301 17.7827 4.76842 17.7582 4.72443C17.747 4.70449 17.7355 4.68484 17.7241 4.66514C17.6986 4.62108 17.6729 4.57721 17.6461 4.53405C17.6349 4.51613 17.6233 4.49868 17.612 4.48088C17.5836 4.43647 17.5551 4.39212 17.5253 4.34866C17.5172 4.33682 17.5085 4.32527 17.5003 4.31348C17.3945 4.16197 17.2803 4.01684 17.1584 3.8786C17.1481 3.86687 17.1381 3.85473 17.1277 3.84306C17.0961 3.80788 17.0633 3.77377 17.0307 3.7396C17.012 3.72001 16.9937 3.70007 16.9746 3.68078C16.944 3.6497 16.9125 3.61946 16.8811 3.58916C16.8589 3.56779 16.8368 3.54636 16.8142 3.5254C16.7836 3.49706 16.7524 3.46932 16.7211 3.44176C16.6965 3.42003 16.6718 3.39848 16.6466 3.37723C16.6158 3.35115 16.5846 3.32549 16.5531 3.30019C16.5264 3.2787 16.4994 3.25757 16.4722 3.23661C16.441 3.21256 16.4095 3.18875 16.3777 3.16541C16.349 3.1444 16.3199 3.12392 16.2907 3.10356C16.2593 3.08159 16.2279 3.05962 16.1959 3.03837C16.1648 3.01766 16.1331 2.99777 16.1014 2.97777C16.0703 2.95806 16.0393 2.93812 16.0077 2.91913C15.9728 2.89817 15.9372 2.87829 15.9017 2.85823C15.8724 2.84156 15.8434 2.82436 15.8136 2.80828C15.7566 2.7775 15.6987 2.7481 15.6404 2.71958C15.6132 2.70624 15.5856 2.69368 15.558 2.68082C15.5099 2.65838 15.4617 2.63606 15.4127 2.61516C15.3846 2.6032 15.3559 2.5923 15.3276 2.58081C15.2857 2.56384 15.2438 2.54682 15.2013 2.53098C15.1709 2.51967 15.1401 2.50931 15.1094 2.49854C15.0681 2.48413 15.0268 2.46978 14.985 2.45645C14.9533 2.44633 14.9214 2.43692 14.8894 2.4274C14.8478 2.41508 14.806 2.40305 14.764 2.3918C14.7316 2.38311 14.699 2.37489 14.6663 2.36691C14.6237 2.35644 14.5809 2.34661 14.5379 2.33727C14.5052 2.33018 14.4725 2.32328 14.4397 2.31691C14.3956 2.30828 14.3512 2.30054 14.3066 2.29315C14.2743 2.2878 14.2421 2.28232 14.2097 2.27756C14.1629 2.27077 14.1158 2.26511 14.0687 2.25964C14.0379 2.25607 14.0072 2.25208 13.9762 2.24904C13.9239 2.24398 13.8712 2.24041 13.8184 2.23702C13.7921 2.23535 13.7661 2.23291 13.7397 2.23166C13.6604 2.22779 13.5807 2.22559 13.5005 2.22559H13.5003C13.42 2.22559 13.3402 2.22779 13.2608 2.23166C13.2343 2.23297 13.2081 2.23541 13.1817 2.23708C13.129 2.24047 13.0763 2.24398 13.024 2.24904C12.993 2.25202 12.9623 2.25607 12.9316 2.25964C12.8843 2.26511 12.837 2.27077 12.7902 2.27762C12.7578 2.28232 12.7257 2.28786 12.6936 2.29321C12.6488 2.30066 12.6042 2.30839 12.5599 2.31709C12.5272 2.32352 12.4946 2.33036 12.4621 2.33745C12.4188 2.34685 12.3758 2.35673 12.333 2.36721C12.3005 2.37519 12.2682 2.3834 12.2359 2.39204C12.1935 2.40341 12.1515 2.41543 12.1096 2.42787C12.0779 2.43728 12.0462 2.44669 12.0148 2.45669C11.9725 2.4702 11.9307 2.48467 11.8889 2.49931C11.8587 2.50991 11.8283 2.52015 11.7984 2.53134C11.7552 2.54741 11.7126 2.56468 11.67 2.58194C11.6424 2.59313 11.6144 2.60385 11.5869 2.61558C11.5382 2.63635 11.4903 2.65862 11.4424 2.68094C11.4218 2.69053 11.401 2.69934 11.3806 2.70916C11.314 2.74131 11.2484 2.775 11.1836 2.81007C11.1587 2.82358 11.1343 2.83817 11.1096 2.8521C11.0692 2.8749 11.0287 2.89752 10.9891 2.92139C10.9601 2.93878 10.9319 2.95717 10.9034 2.97509C10.8689 2.99688 10.8343 3.01855 10.8003 3.04123C10.7706 3.06099 10.7415 3.08153 10.7122 3.10195C10.6805 3.1241 10.6488 3.1463 10.6176 3.16922C10.588 3.19095 10.5589 3.21322 10.5298 3.23554C10.5001 3.25846 10.4704 3.28162 10.4412 3.30519C10.4121 3.32865 10.3833 3.35246 10.3548 3.37657C10.3268 3.40021 10.2992 3.42426 10.2718 3.44855C10.2432 3.47379 10.2147 3.49921 10.1867 3.5251C10.1606 3.54933 10.135 3.5741 10.1094 3.59886C10.0814 3.62595 10.0535 3.65292 10.0261 3.68066C10.0018 3.70531 9.97821 3.73067 9.95445 3.75585C9.92713 3.78478 9.8995 3.81353 9.87289 3.84318C9.85111 3.86741 9.83021 3.89235 9.8089 3.917C9.78151 3.94873 9.75371 3.9801 9.72716 4.01249C9.71728 4.02457 9.70799 4.03714 9.69823 4.04934C9.6337 4.12959 9.57184 4.2121 9.51237 4.29646C9.49802 4.31687 9.48308 4.33682 9.46897 4.35748C9.44361 4.39468 9.4195 4.43272 9.39515 4.47065C9.37938 4.49523 9.36324 4.51952 9.34788 4.54435C9.32467 4.58191 9.30252 4.62019 9.28031 4.65841C9.26519 4.68448 9.24995 4.71038 9.23525 4.73675C9.21388 4.77521 9.19334 4.81414 9.17298 4.8532C9.15893 4.88016 9.14494 4.90713 9.13143 4.9344C9.11178 4.97393 9.09273 5.01381 9.07416 5.05388C9.06142 5.08138 9.04898 5.10894 9.03671 5.13669C9.01867 5.17752 9.00111 5.2186 8.9842 5.25998C8.97295 5.28754 8.96218 5.31534 8.9514 5.34314C8.93497 5.38559 8.91872 5.42815 8.90342 5.47119C8.8939 5.49804 8.88508 5.52519 8.87598 5.55222C8.86097 5.59693 8.84597 5.64163 8.83228 5.68694C8.8249 5.71123 8.81841 5.73593 8.81144 5.7604C8.79751 5.80916 8.78346 5.85785 8.77096 5.9072C8.76822 5.91798 8.76608 5.92893 8.76346 5.93977C8.73131 6.07115 8.70393 6.20439 8.68262 6.3397C9.56381 6.35161 12.9087 6.2504 15.6827 4.18924C15.6827 4.18924 16.2632 6.13664 18.3149 6.32464L18.3146 6.32154Z" fill="#DB8E53"/>
<path d="M27.0004 26.4719C27.0004 22.1543 23.7978 18.5881 19.6392 18.0107L13.5005 24.7435V26.4719H27.0004Z" fill="#383838"/>
<path d="M13.5003 21.1724L16.7483 16.3735L16.7607 16.3848V15.1064C15.8967 15.8838 14.7539 16.3571 13.5002 16.3571L13.5003 21.1724Z" fill="#C1692A"/>
<path d="M18.3151 6.32485C16.2634 6.13685 15.6829 4.18945 15.6829 4.18945C14.9757 4.71488 14.2316 5.11237 13.5005 5.41372V16.3581C14.7542 16.358 15.8969 15.8846 16.7609 15.1074C17.7533 14.2146 18.3777 12.9207 18.3777 11.4808V7.10329C18.3777 6.83826 18.3558 6.5784 18.3151 6.32485Z" fill="#DB8E53"/>
<path d="M16.2008 1.70662C18.0961 2.69455 19.3365 4.67433 19.3747 6.81456C19.3749 6.82545 19.3749 6.83635 19.3751 6.84724H18.3775V11.576H20.4215C20.761 11.576 21.0362 11.3007 21.0362 10.9612V7.90107C21.0362 7.31903 20.5643 6.84724 19.9824 6.84724H19.9029C19.8611 4.76173 18.8243 2.80837 17.0954 1.62607C16.0296 0.897167 14.7662 0.530333 13.5002 0.530273V1.05689C14.4285 1.05415 15.3583 1.26751 16.2008 1.70662Z" fill="#EA5244"/>
<path d="M13.5005 21.1729V24.7432L19.6391 18.0104L19.6405 18.0088C19.6224 18.0063 19.6042 18.0045 19.5862 18.0022C19.5764 18.0008 19.5664 17.9997 19.5565 17.9985C19.4278 17.9821 19.2982 17.968 19.1679 17.9569C19.1066 17.9517 19.0452 17.9468 18.9834 17.9429C18.9312 17.9395 18.8789 17.9367 18.8264 17.9343C18.7028 17.9288 18.5788 17.9249 18.4538 17.9249L16.7608 16.3853L16.7484 16.374L13.5005 21.1729Z" fill="#66C2C3"/>
<path d="M18.3151 6.32446L18.3146 6.32148C18.2699 6.04425 18.2013 5.77504 18.1121 5.51554C18.107 5.50096 18.1024 5.48626 18.0972 5.47179C18.0789 5.42018 18.0593 5.36922 18.0393 5.31844C18.0319 5.2995 18.0246 5.28057 18.017 5.26176C17.9973 5.21342 17.9766 5.16562 17.9553 5.11811C17.9462 5.09763 17.937 5.07715 17.9276 5.05679C17.9062 5.0106 17.8841 4.96476 17.8614 4.91933C17.851 4.89874 17.8405 4.87826 17.8298 4.85778C17.8065 4.81295 17.7827 4.76836 17.7581 4.72437C17.747 4.70443 17.7355 4.68478 17.724 4.66508C17.6985 4.62102 17.6728 4.57715 17.646 4.53399C17.6349 4.51607 17.6233 4.49862 17.612 4.48088C17.5836 4.43647 17.5551 4.39212 17.5253 4.34866C17.5172 4.33682 17.5085 4.32527 17.5003 4.31348C17.3945 4.16197 17.2803 4.01683 17.1584 3.8786C17.1481 3.86687 17.1381 3.85473 17.1276 3.84306C17.096 3.80788 17.0633 3.77377 17.0307 3.7396C17.012 3.72001 16.9936 3.70007 16.9746 3.68078C16.944 3.6497 16.9125 3.61946 16.8811 3.58916C16.8588 3.56779 16.8368 3.54636 16.8142 3.5254C16.7836 3.49706 16.7524 3.46932 16.7211 3.44176C16.6964 3.42003 16.6717 3.39848 16.6466 3.37723C16.6158 3.35115 16.5845 3.32549 16.5531 3.30019C16.5264 3.2787 16.4993 3.25757 16.4722 3.23661C16.4409 3.21256 16.4095 3.18875 16.3777 3.16541C16.349 3.1444 16.3198 3.12392 16.2907 3.10356C16.2592 3.08159 16.2279 3.05962 16.1959 3.03837C16.1648 3.01765 16.133 2.99777 16.1014 2.97777C16.0702 2.95806 16.0393 2.93812 16.0077 2.91913C15.9728 2.89817 15.9372 2.87829 15.9017 2.85823C15.8723 2.84156 15.8434 2.82436 15.8136 2.80828C15.7566 2.7775 15.6987 2.7481 15.6404 2.71958C15.6131 2.70624 15.5855 2.69368 15.558 2.68082C15.5099 2.65838 15.4617 2.63606 15.4127 2.61516C15.3846 2.6032 15.3559 2.5923 15.3276 2.58081C15.2857 2.56384 15.2438 2.54682 15.2012 2.53098C15.1709 2.51967 15.1401 2.50931 15.1094 2.49854C15.0681 2.48413 15.0268 2.46978 14.985 2.45645C14.9533 2.44633 14.9213 2.43692 14.8894 2.4274C14.8477 2.41508 14.806 2.40305 14.7639 2.3918C14.7315 2.38311 14.699 2.37489 14.6663 2.36691C14.6237 2.35644 14.5809 2.34661 14.5378 2.33727C14.5052 2.33018 14.4725 2.32328 14.4397 2.31691C14.3955 2.30828 14.3511 2.30054 14.3065 2.29315C14.2743 2.2878 14.2421 2.28232 14.2096 2.27756C14.1629 2.27077 14.1158 2.26511 14.0687 2.25964C14.0379 2.25607 14.0072 2.25208 13.9762 2.24904C13.9239 2.24398 13.8711 2.24041 13.8183 2.23702C13.7921 2.23535 13.7661 2.23291 13.7397 2.23166C13.6604 2.22779 13.5807 2.22559 13.5005 2.22559V5.41339C14.2316 5.1121 14.9757 4.71461 15.6829 4.18912C15.6829 4.18906 16.2634 6.13646 18.3151 6.32446Z" fill="#C1692A"/>
</g>
<defs>
<clipPath id="clip0_1097_55">
<rect width="27" height="27" fill="white"/>
</clipPath>
</defs>
</svg>
