<svg width="20" height="20" viewBox="0 0 20 20" fill="none" xmlns="http://www.w3.org/2000/svg">
<path d="M18.8767 9.02964C19.3329 9.59358 19.3329 10.4056 18.8767 10.9695C17.4566 12.725 13.8886 16.2491 10.0007 16.2491C6.11293 16.2491 2.54348 12.725 1.12338 10.9695C0.667205 10.4055 0.667205 9.59355 1.12338 9.0296C2.54348 7.27413 6.11289 3.75 10.0007 3.75C13.8885 3.75 17.4566 7.27413 18.8767 9.02964Z" stroke="white" stroke-width="1.25" stroke-miterlimit="10" stroke-linecap="round" stroke-linejoin="round"/>
<path d="M10.0008 13.1246C11.7265 13.1246 13.1255 11.7256 13.1255 9.99979C13.1255 8.27401 11.7265 6.875 10.0008 6.875C8.27499 6.875 6.87598 8.27401 6.87598 9.99979C6.87598 11.7256 8.27499 13.1246 10.0008 13.1246Z" stroke="white" stroke-width="1.25" stroke-miterlimit="10" stroke-linecap="round" stroke-linejoin="round"/>
</svg>
