<svg width="17" height="17" viewBox="0 0 17 17" fill="none" xmlns="http://www.w3.org/2000/svg">
<path d="M0.749682 5.22809C0.841931 5.22809 0.930402 5.19144 0.995632 5.12621C1.06086 5.06098 1.09751 4.97251 1.09751 4.88026V2.17556C1.09788 1.87827 1.21614 1.59325 1.42636 1.38303C1.63658 1.17281 1.9216 1.05454 2.2189 1.05417H4.92359C5.01584 1.05417 5.10431 1.01753 5.16954 0.952297C5.23477 0.887067 5.27142 0.798596 5.27142 0.706347C5.27142 0.614097 5.23477 0.525627 5.16954 0.460396C5.10431 0.395166 5.01584 0.358521 4.92359 0.358521H2.2189C1.73716 0.359073 1.27531 0.550688 0.934665 0.89133C0.594023 1.23197 0.402408 1.69382 0.401855 2.17556V4.88026C0.401855 4.97251 0.438501 5.06098 0.503731 5.12621C0.568961 5.19144 0.657432 5.22809 0.749682 5.22809Z" fill="white"/>
<path d="M14.5846 0.358521H11.8799C11.7877 0.358521 11.6992 0.395166 11.634 0.460396C11.5688 0.525627 11.5321 0.614097 11.5321 0.706347C11.5321 0.798596 11.5688 0.887067 11.634 0.952297C11.6992 1.01753 11.7877 1.05417 11.8799 1.05417H14.5846C14.8819 1.05454 15.1669 1.17281 15.3772 1.38303C15.5874 1.59325 15.7056 1.87827 15.706 2.17556V4.88026C15.706 4.97251 15.7427 5.06098 15.8079 5.12621C15.8731 5.19144 15.9616 5.22809 16.0538 5.22809C16.1461 5.22809 16.2346 5.19144 16.2998 5.12621C16.365 5.06098 16.4017 4.97251 16.4017 4.88026V2.17556C16.4011 1.69382 16.2095 1.23197 15.8689 0.89133C15.5282 0.550688 15.0664 0.359073 14.5846 0.358521Z" fill="white"/>
<path d="M4.92347 15.6629H2.21878C1.92148 15.6626 1.63646 15.5443 1.42624 15.3341C1.21602 15.1238 1.09775 14.8388 1.09739 14.5415V11.8368C1.09739 11.7446 1.06074 11.6561 0.99551 11.5909C0.93028 11.5257 0.841809 11.489 0.749559 11.489C0.65731 11.489 0.568839 11.5257 0.503609 11.5909C0.438379 11.6561 0.401733 11.7446 0.401733 11.8368V14.5415C0.402286 15.0233 0.593901 15.4851 0.934543 15.8258C1.27519 16.1664 1.73704 16.358 2.21878 16.3586H4.92347C5.01572 16.3586 5.10419 16.3219 5.16942 16.2567C5.23465 16.1915 5.2713 16.103 5.2713 16.0108C5.2713 15.9185 5.23465 15.83 5.16942 15.7648C5.10419 15.6996 5.01572 15.6629 4.92347 15.6629Z" fill="white"/>
<path d="M16.0538 11.489C15.9616 11.489 15.8731 11.5257 15.8079 11.5909C15.7427 11.6561 15.706 11.7446 15.706 11.8368V14.5415C15.7056 14.8388 15.5874 15.1238 15.3772 15.3341C15.1669 15.5443 14.8819 15.6626 14.5846 15.6629H11.8799C11.7877 15.6629 11.6992 15.6996 11.634 15.7648C11.5688 15.83 11.5321 15.9185 11.5321 16.0108C11.5321 16.103 11.5688 16.1915 11.634 16.2567C11.6992 16.3219 11.7877 16.3586 11.8799 16.3586H14.5846C15.0664 16.358 15.5282 16.1664 15.8689 15.8258C16.2095 15.4851 16.4011 15.0233 16.4017 14.5415V11.8368C16.4017 11.7446 16.365 11.6561 16.2998 11.5909C16.2346 11.5257 16.1461 11.489 16.0538 11.489Z" fill="white"/>
<path d="M13.2713 10.9672V5.74985C13.2713 5.68879 13.2552 5.62881 13.2247 5.57594C13.1942 5.52307 13.1503 5.47916 13.0974 5.44863L8.57564 2.83993C8.52277 2.80941 8.46279 2.79333 8.40173 2.79333C8.34068 2.79333 8.28069 2.80941 8.22782 2.83993L3.70956 5.44863C3.65668 5.47916 3.61277 5.52307 3.58225 5.57594C3.55172 5.62881 3.53565 5.68879 3.53564 5.74985V10.9672C3.53565 11.0283 3.55172 11.0883 3.58225 11.1411C3.61277 11.194 3.65668 11.2379 3.70956 11.2685L8.2313 13.8772C8.28417 13.9077 8.34415 13.9238 8.40521 13.9238C8.46627 13.9238 8.52625 13.9077 8.57912 13.8772L13.1009 11.2685C13.1531 11.2375 13.1963 11.1934 13.2262 11.1406C13.2561 11.0877 13.2717 11.028 13.2713 10.9672ZM8.40173 3.54254L12.2278 5.74985L8.40173 7.95715L4.57912 5.74985L8.40173 3.54254ZM4.2313 6.35228L8.05391 8.55959V12.9735L4.2313 10.7662V6.35228ZM8.74956 12.9735V8.55959L12.5756 6.35228V10.7662L8.74956 12.9735Z" fill="white"/>
</svg>
