<svg width="12" height="14" viewBox="0 0 12 14" fill="none" xmlns="http://www.w3.org/2000/svg">
<path d="M7.18841 6.99167L11.5992 2.1484C11.6788 2.06399 11.7423 1.96302 11.786 1.85138C11.8297 1.73975 11.8527 1.61968 11.8536 1.49818C11.8546 1.37668 11.8335 1.25619 11.7916 1.14374C11.7497 1.03128 11.6878 0.929117 11.6096 0.843202C11.5313 0.757287 11.4383 0.689343 11.3359 0.643334C11.2335 0.597326 11.1237 0.574174 11.0131 0.57523C10.9024 0.576286 10.7931 0.601528 10.6914 0.649484C10.5897 0.69744 10.4978 0.767149 10.4209 0.854544L6.01008 5.69781L1.59924 0.854544C1.44208 0.687864 1.23157 0.595633 1.01308 0.597718C0.794579 0.599803 0.585569 0.696036 0.431062 0.86569C0.276555 1.03534 0.188914 1.26485 0.187016 1.50476C0.185117 1.74468 0.269113 1.97582 0.420911 2.1484L4.83174 6.99167L0.420911 11.8349C0.341319 11.9193 0.277834 12.0203 0.23416 12.132C0.190485 12.2436 0.167497 12.3637 0.166535 12.4852C0.165574 12.6067 0.186658 12.7271 0.228559 12.8396C0.27046 12.9521 0.332338 13.0542 0.410581 13.1401C0.488825 13.226 0.581869 13.294 0.684282 13.34C0.786696 13.386 0.896429 13.4092 1.00708 13.4081C1.11773 13.407 1.22708 13.3818 1.32875 13.3338C1.43042 13.2859 1.52237 13.2162 1.59924 13.1288L6.01008 8.28552L10.4209 13.1288C10.5781 13.2955 10.7886 13.3877 11.0071 13.3856C11.2256 13.3835 11.4346 13.2873 11.5891 13.1176C11.7436 12.948 11.8312 12.7185 11.8331 12.4786C11.835 12.2387 11.751 12.0075 11.5992 11.8349L7.18841 6.99167Z" fill="#9CA3AF"/>
</svg>
