<svg width="70" height="16" viewBox="0 0 70 16" fill="none" xmlns="http://www.w3.org/2000/svg">
<path d="M6.56 12.24C5.39733 12.24 4.38133 12 3.512 11.52C2.64267 11.04 1.96533 10.3627 1.48 9.488C1 8.608 0.76 7.58133 0.76 6.408C0.76 5.55467 0.901333 4.77333 1.184 4.064C1.472 3.34933 1.87467 2.73067 2.392 2.208C2.91467 1.68533 3.53067 1.28 4.24 0.992C4.94933 0.704 5.728 0.559999 6.576 0.559999C7.42933 0.559999 8.16533 0.666666 8.784 0.879999C9.408 1.09333 9.952 1.39733 10.416 1.792L9.488 3.256C9.136 2.93067 8.72533 2.688 8.256 2.528C7.78667 2.368 7.26933 2.288 6.704 2.288C6.08 2.288 5.51733 2.384 5.016 2.576C4.51467 2.768 4.08533 3.04267 3.728 3.4C3.376 3.752 3.104 4.18133 2.912 4.688C2.72533 5.18933 2.632 5.75733 2.632 6.392C2.632 7.256 2.8 7.99467 3.136 8.608C3.47733 9.22133 3.95733 9.69067 4.576 10.016C5.2 10.336 5.936 10.496 6.784 10.496C7.34933 10.496 7.89333 10.4133 8.416 10.248C8.944 10.0773 9.43733 9.80267 9.896 9.424L10.728 10.936C10.1893 11.3573 9.57333 11.68 8.88 11.904C8.192 12.128 7.41867 12.24 6.56 12.24ZM13.0603 15.584C12.7723 15.584 12.4896 15.552 12.2122 15.488C11.9349 15.424 11.6629 15.3147 11.3963 15.16L11.7963 13.656C11.9616 13.7627 12.1429 13.8427 12.3403 13.896C12.5376 13.9493 12.7136 13.976 12.8683 13.976C13.2416 13.976 13.5349 13.888 13.7483 13.712C13.9616 13.536 14.1296 13.264 14.2523 12.896L14.5163 12.128L11.3963 4.08H13.3243L15.5163 10.224L17.6523 4.08H19.5163L16.0923 13.144C15.8469 13.7787 15.5723 14.272 15.2682 14.624C14.9643 14.9813 14.6283 15.2293 14.2603 15.368C13.8923 15.512 13.4923 15.584 13.0603 15.584ZM25.5039 12.24C24.9759 12.24 24.4985 12.1627 24.0719 12.008C23.6505 11.8533 23.2852 11.64 22.9759 11.368C22.6665 11.0907 22.4159 10.7733 22.2239 10.416L22.4799 10.024V12H20.8959V0.48H22.6479V5.904L22.2879 5.512C22.6399 5 23.0799 4.59467 23.6079 4.296C24.1359 3.992 24.7599 3.84 25.4799 3.84C26.2692 3.84 26.9625 4.02933 27.5599 4.408C28.1625 4.78133 28.6319 5.28533 28.9679 5.92C29.3039 6.55467 29.4719 7.26133 29.4719 8.04C29.4719 8.64267 29.3732 9.2 29.1759 9.712C28.9839 10.224 28.7119 10.6693 28.3599 11.048C28.0079 11.4213 27.5892 11.7147 27.1039 11.928C26.6185 12.136 26.0852 12.24 25.5039 12.24ZM25.1839 10.68C25.6692 10.68 26.1012 10.5733 26.4799 10.36C26.8639 10.1413 27.1652 9.83467 27.3839 9.44C27.6025 9.04533 27.7119 8.57867 27.7119 8.04C27.7119 7.50133 27.6025 7.03467 27.3839 6.64C27.1705 6.24 26.8719 5.93333 26.4879 5.72C26.1092 5.50667 25.6745 5.4 25.1839 5.4C24.6932 5.4 24.2559 5.50667 23.8719 5.72C23.4932 5.93333 23.1945 6.24 22.9759 6.64C22.7572 7.03467 22.6479 7.50133 22.6479 8.04C22.6479 8.57867 22.7572 9.04533 22.9759 9.44C23.1945 9.83467 23.4932 10.1413 23.8719 10.36C24.2559 10.5733 24.6932 10.68 25.1839 10.68ZM32.709 12V2.44H29.557V0.799999H37.653V2.44H34.501V12H32.709ZM39.5341 12V0.799999H46.7741V2.384H41.3261V5.408H46.0301V6.904H41.3261V10.4H46.8221V12H39.5341ZM49.331 12V0.799999H51.123V6.536L55.755 0.799999H57.963L53.867 5.872L58.579 12H56.267L52.691 7.24L51.123 9.096V12H49.331ZM60.456 12V0.799999H62.248V6.536L66.88 0.799999H69.088L64.992 5.872L69.704 12H67.392L63.816 7.24L62.248 9.096V12H60.456Z" fill="url(#paint0_linear_3002_28128)"/>
<defs>
<linearGradient id="paint0_linear_3002_28128" x1="0" y1="10.5" x2="71" y2="10.5" gradientUnits="userSpaceOnUse">
<stop stop-color="#C00DFF"/>
<stop offset="1" stop-color="#145BE4"/>
</linearGradient>
</defs>
</svg>
